/vscmnt/brussel_pixiu_data/_data_brussel/112/vsc11236/PredSimResults/SUBJ04mtu3D/worker8.mot
version=1
nRows=9
nColumns=50
inDegrees=yes
endheader
                time	         pelvis_tilt	         pelvis_list	     pelvis_rotation	           pelvis_tx	           pelvis_ty	           pelvis_tz	       hip_flexion_r	     hip_adduction_r	      hip_rotation_r	        knee_angle_r	       ankle_angle_r	         mtp_angle_r	       hip_flexion_l	     hip_adduction_l	      hip_rotation_l	        knee_angle_l	       ankle_angle_l	         mtp_angle_l	    lumbar_extension	      lumbar_bending	     lumbar_rotation	 ercspn_r/activation	 intobl_r/activation	 extobl_r/activation	    abd_r/activation	    add_r/activation	hamstrings_r/activation	bifemsh_r/activation	glut_max_r/activation	iliopsoas_r/activation	rect_fem_r/activation	  vasti_r/activation	gastroc_r/activation	 soleus_r/activation	tib_ant_r/activation	 ercspn_l/activation	 intobl_l/activation	 extobl_l/activation	    abd_l/activation	    add_l/activation	hamstrings_l/activation	bifemsh_l/activation	glut_max_l/activation	iliopsoas_l/activation	rect_fem_l/activation	  vasti_l/activation	gastroc_l/activation	 soleus_l/activation	tib_ant_l/activation	
          1.91582328	         -2.46149298	         -2.48436282	         -4.05941845	          1.80087388	          0.87935252	          0.00495009	        -12.04803683	          1.88634734	         -6.99023214	         -7.76986552	         13.23773493	         19.73102626	         30.77406569	         -3.88798802	         -3.41937172	        -12.38397064	          5.25755250	          0.22992496	        -14.01089831	          6.54342508	          2.38325927	          0.01000000	          0.00999999	          0.00999999	          0.04733578	          0.01000005	          0.05708329	          0.17916808	          0.01680319	          0.01000000	          0.00999999	          0.00999999	          0.25998185	          0.23916807	          0.01000002	          0.02163642	          0.10383803	          0.04184285	          0.02758956	          0.20415348	          0.06022810	          0.12283759	          0.05511114	          0.05736281	          0.01783633	          0.00999999	          0.02251726	          0.01860202	          0.35347613	
          1.92859543	         -2.51300718	         -2.35392483	         -3.96840901	          1.81622401	          0.87754361	          0.00481237	        -12.64574403	          1.66665628	         -7.43795785	         -8.49437737	         12.99767300	         21.18795635	         30.34934409	         -3.67221901	         -3.42855938	        -13.33927400	          4.95561064	          0.22625201	        -13.55934248	          5.73069591	          2.48857496	          0.01000004	          0.00999999	          0.00999999	          0.03902793	          0.01000001	          0.04706468	          0.14772251	          0.01385408	          0.01228470	          0.01000000	          0.00999999	          0.21909389	          0.23373566	          0.00999999	          0.01783905	          0.08561355	          0.03449906	          0.04594156	          0.18505493	          0.06319194	          0.10127852	          0.10111835	          0.04729513	          0.01470590	          0.00999999	          0.01856528	          0.01533720	          0.39074943	
          1.94136759	         -2.55609247	         -2.19981986	         -3.84484453	          1.83175845	          0.87600782	          0.00459228	        -13.12091201	          1.40453232	         -7.91182464	         -9.47384077	         12.66118601	         22.68775436	         29.90944772	         -3.45501291	         -3.48732601	        -14.20864550	          4.43673962	          0.21605405	        -13.09379503	          4.87635067	          2.58381387	          0.02261194	          0.00999999	          0.00999999	          0.03217819	          0.01000000	          0.03880443	          0.12179591	          0.01142257	          0.01012866	          0.01000000	          0.00999999	          0.18064098	          0.22373131	          0.00999999	          0.02918880	          0.07058762	          0.02844417	          0.07655552	          0.19931069	          0.06226291	          0.08350325	          0.09953278	          0.03899442	          0.01212488	          0.03990025	          0.01530691	          0.01264539	          0.41852155	
          1.95413974	         -2.59158587	         -2.02934078	         -3.68896403	          1.84733542	          0.87491602	          0.00428122	        -13.41131749	          1.09870525	         -8.41459419	        -10.79358051	         12.17864204	         24.24332886	         29.48389088	         -3.23067654	         -3.61246161	        -15.09798016	          3.94314442	          0.19582504	        -12.63257681	          3.99345924	          2.66815368	          0.04838328	          0.00999999	          0.00999999	          0.02653063	          0.01000001	          0.04774818	          0.10041965	          0.01747613	          0.01000001	          0.01000000	          0.00999999	          0.14893690	          0.20901922	          0.00999999	          0.02558205	          0.05819887	          0.02345197	          0.09749996	          0.21054667	          0.06446106	          0.06884770	          0.08965417	          0.03215055	          0.00999999	          0.07859253	          0.01262042	          0.01042601	          0.44653315	
          1.96691190	         -2.62037534	         -1.84220099	         -3.50620259	          1.86288666	          0.87438970	          0.00387599	        -13.47372798	          0.74026344	         -8.96391118	        -12.51036824	         11.50107479	         25.86209697	         29.02113117	         -2.98876549	         -3.77296006	        -15.94978398	          3.61247098	          0.17578072	        -12.18270984	          3.08789479	          2.74434802	          0.07408105	          0.00999999	          0.00999999	          0.02187427	          0.01000002	          0.06275697	          0.08279512	          0.02777080	          0.01000001	          0.01000000	          0.00999999	          0.12279716	          0.17592006	          0.00999999	          0.02522585	          0.04798445	          0.01933594	          0.12288977	          0.20678204	          0.07042698	          0.05676433	          0.07664641	          0.02650785	          0.00999999	          0.11417702	          0.01040543	          0.01000000	          0.45492033	
          1.97968405	         -2.64342995	         -1.64314412	         -3.30115453	          1.87832027	          0.87452109	          0.00338300	        -13.26422973	          0.32408342	         -9.58126995	        -14.68219687	         10.59754787	         27.50416086	         28.48232911	         -2.72231807	         -3.91904919	        -16.68860952	          3.44653330	          0.15799843	        -11.75336330	          2.16988457	          2.81447801	          0.09564663	          0.00999999	          0.00999999	          0.01803514	          0.01000009	          0.10069544	          0.06826385	          0.03739008	          0.01000000	          0.00999999	          0.01014307	          0.10124517	          0.14504454	          0.00999999	          0.02079851	          0.03956276	          0.01594231	          0.14450290	          0.20249948	          0.07340925	          0.04680170	          0.06319434	          0.02185549	          0.00999999	          0.14081752	          0.01000001	          0.01000001	          0.45029983	
          1.99245621	         -2.66135417	         -1.44021678	         -3.07903369	          1.89353411	          0.87534158	          0.00281810	        -12.74649213	         -0.15417799	        -10.27085374	        -17.34930670	          9.43813574	         29.09699035	         27.85283313	         -2.43160268	         -4.01289786	        -17.27387362	          3.42255726	          0.14511799	        -11.35539973	          1.25172950	          2.87876642	          0.08606712	          0.01700565	          0.00999999	          0.01486982	          0.08248117	          0.11588417	          0.05628294	          0.03082780	          0.01000000	          0.00999999	          0.01212867	          0.08347575	          0.11958794	          0.00999999	          0.01714821	          0.03261915	          0.01314430	          0.15545374	          0.21214501	          0.07858167	          0.03858760	          0.05210318	          0.01801966	          0.00999999	          0.15732822	          0.01000001	          0.01000025	          0.43702601	
          2.00522836	         -2.67422880	         -1.25099879	         -2.84489435	          1.90845066	          0.87679915	          0.00219667	        -11.89845568	         -0.69281967	        -11.00168139	        -20.52898811	          8.01086638	         30.50824632	         27.12140790	         -2.13471134	         -4.05151906	        -17.67236508	          3.50624747	          0.13844567	        -10.99920207	          0.35627522	          2.93155406	          0.08781625	          0.03930854	          0.00999999	          0.01226003	          0.07498457	          0.13311198	          0.04640479	          0.02541725	          0.01000000	          0.00999999	          0.00999999	          0.06882502	          0.09859920	          0.01000002	          0.01471051	          0.02689420	          0.01083736	          0.16115088	          0.21979376	          0.08608034	          0.03181514	          0.04295862	          0.01485705	          0.00999999	          0.16456015	          0.01000001	          0.01000000	          0.41807358	
          2.01800052	         -2.68091704	         -1.09679213	         -2.60606528	          1.92300913	          0.87877973	          0.00151858	        -10.70133978	         -1.29089294	        -11.74901199	        -24.26105770	          6.48608727	         31.27709076	         26.28906132	         -1.85909018	         -4.04994376	        -17.87888495	          3.67662177	          0.14217232	        -10.69403287	         -0.48529190	          2.96582864	          0.07980437	          0.05497341	          0.00999999	          0.01010829	          0.13269809	          0.11021231	          0.03826034	          0.02095630	          0.01000000	          0.00999999	          0.00999999	          0.05674562	          0.08129417	          0.05654753	          0.01212869	          0.02217403	          0.01000000	          0.16883465	          0.22330304	          0.09057301	          0.02623131	          0.04053081	          0.01224951	          0.00999999	          0.16734777	          0.01000004	          0.01000001	          0.39312471	
